<svg width="60" height="60" fill="none" xmlns="http://www.w3.org/2000/svg"><circle cx="30" cy="30" r="30" fill="#C6F8E3" fill-opacity=".6"/><circle cx="30.242" cy="29.648" r="5.414" fill="#90F2C8"/><path fill-rule="evenodd" clip-rule="evenodd" d="M28.115 21.123l1.914-1.914a.3.3 0 01.426 0l1.914 1.914a.3.3 0 01-.426.425l-1.4-1.4v4.086h-.602v-4.086l-1.4 1.4a.3.3 0 11-.426-.425zm4.254 17.05l-1.914 1.914a.3.3 0 01-.426 0l-1.914-1.914a.3.3 0 01.426-.425l1.4 1.4v-4.086h.602v4.086l1.4-1.4a.3.3 0 01.426.425zM22.23 27.528l-.7-2.614a.3.3 0 01.212-.369l2.615-.7a.3.3 0 11.156.58l-1.914.513 3.54 2.043-.302.521L22.3 25.46l.512 1.914a.3.3 0 01-.58.155zm0 4.842l-.7 2.614a.3.3 0 00.212.369l2.615.7a.3.3 0 10.156-.58l-1.914-.513 3.54-2.044-.302-.52-3.538 2.043.512-1.914a.3.3 0 00-.58-.155zm13.854-8.525l2.614.7a.3.3 0 01.213.368l-.7 2.615a.3.3 0 01-.582-.155l.513-1.914-3.539 2.043-.3-.52 3.538-2.044-1.913-.512a.3.3 0 01.156-.581zm0 12.208l2.614-.7a.3.3 0 00.213-.369l-.7-2.614a.3.3 0 00-.582.155l.513 1.914-3.539-2.044-.3.521 3.538 2.044-1.913.512a.3.3 0 00.156.581z" fill="#90F2C8"/><circle cx="17.008" cy="21.828" r="3.008" fill="#90F2C8"/><circle r="3.008" transform="matrix(1 0 0 -1 17.008 37.468)" fill="#90F2C8"/><circle cx="30.242" cy="14.008" r="3.008" fill="#90F2C8"/><circle r="3.008" transform="matrix(1 0 0 -1 30.242 45.288)" fill="#90F2C8"/><circle cx="43.476" cy="21.828" r="3.008" fill="#90F2C8"/><circle r="3.008" transform="matrix(1 0 0 -1 43.476 37.468)" fill="#90F2C8"/></svg>