<svg width="161" height="161" fill="none" xmlns="http://www.w3.org/2000/svg"><g clip-path="url(#clip0)"><path d="M66.5 118C38.104 118 15 94.896 15 66.5S38.104 15 66.5 15 118 38.104 118 66.5 94.896 118 66.5 118z" fill="#FFFBE5" fill-opacity=".4"/><path d="M66.618 98.31a8.297 8.297 0 01-4.156-1.109L42.096 85.53c-2.598-1.49-4.19-4.26-4.225-7.239l-.07-23.517a8.39 8.39 0 014.157-7.24l20.33-11.81a8.355 8.355 0 018.348-.035l20.4 11.672c2.563 1.49 4.191 4.26 4.191 7.205l.07 23.517c0 2.979-1.56 5.75-4.122 7.24l-20.331 11.81a8.269 8.269 0 01-4.226 1.177c.035 0 0 0 0 0zm-.173-62.69a7.307 7.307 0 00-3.671 1.004l-20.297 11.81a7.357 7.357 0 00-3.637 6.339l.07 23.517c0 2.598 1.42 5.022 3.671 6.338l20.4 11.673a6.865 6.865 0 003.672.97 7.225 7.225 0 003.671-1.005l20.331-11.81a7.357 7.357 0 003.637-6.339l-.07-23.518a7.291 7.291 0 00-3.67-6.303L70.15 36.624c-1.178-.659-2.425-1.005-3.706-1.005z" fill="#FFDD0F" opacity=".4"/><path d="M66.583 86.326c-.935 0-1.87-.243-2.667-.728L51.31 78.394c-1.662-.97-2.702-2.736-2.702-4.641l-.034-14.512a5.365 5.365 0 012.667-4.642l12.572-7.308c1.628-.97 3.706-.97 5.369 0l12.607 7.205a5.473 5.473 0 012.702 4.64l.035 14.513a5.365 5.365 0 01-2.667 4.641l-12.573 7.308c-.797.485-1.732.728-2.702.728.035 0 0 0 0 0zm-.104-38.723c-.762 0-1.489.208-2.182.589L51.725 55.5a4.362 4.362 0 00-2.148 3.74l.035 14.513a4.32 4.32 0 002.182 3.74L64.4 84.699a4.29 4.29 0 002.182.589 4.16 4.16 0 002.148-.59l12.572-7.307a4.363 4.363 0 002.148-3.741l-.035-14.512c0-1.524-.831-2.944-2.182-3.741l-12.607-7.204c-.658-.416-1.386-.589-2.148-.589z" fill="#FFDD0F"/><path opacity=".4" d="M100.63 54.565l.069 23.517c0 2.979 1.628 5.75 4.226 7.24l7.654 4.363c.174-.311.312-.623.451-.935l-7.585-4.33c-2.252-1.316-3.672-3.74-3.672-6.338l-.069-23.517a7.356 7.356 0 013.637-6.338l7.55-4.4c-.138-.311-.312-.623-.45-.934l-7.62 4.433c-2.632 1.49-4.225 4.295-4.191 7.239z" fill="#FFDD0F"/><path opacity=".7" d="M111.402 59.033l.034 14.512c0 1.905 1.04 3.671 2.702 4.641l2.251 1.282c.104-.347.174-.693.277-1.04l-2.008-1.142a4.321 4.321 0 01-2.182-3.74l-.035-14.513a4.36 4.36 0 012.147-3.74l2.009-1.178a11.413 11.413 0 00-.277-1.04l-2.251 1.317c-1.663.935-2.667 2.736-2.667 4.64z" fill="#FFDD0F"/><path opacity=".4" d="M31.497 78.325l-.069-23.518c0-2.944-1.628-5.715-4.19-7.204l-6.893-3.949c-.139.312-.312.624-.45.936l6.823 3.913c2.251 1.317 3.671 3.741 3.671 6.304l.07 23.518a7.357 7.357 0 01-3.637 6.338l-6.789 3.949c.139.311.312.623.45.935l6.858-3.983c2.563-1.524 4.156-4.295 4.156-7.24z" fill="#FFDD0F"/><path opacity=".7" d="M20.691 73.857l-.034-14.513c0-1.905-1.04-3.671-2.702-4.64l-1.42-.797c-.104.346-.173.692-.242 1.039l1.143.658a4.322 4.322 0 012.181 3.74l.035 14.513a4.363 4.363 0 01-2.147 3.74l-1.143.658c.069.347.173.693.277 1.04l1.42-.832c1.628-.9 2.667-2.701 2.632-4.606z" fill="#FFDD0F"/><path d="M73.337 29.558L93.703 41.23a8.295 8.295 0 004.156 1.108h.035a8.205 8.205 0 004.191-1.143l6.892-4.017c-.207-.277-.381-.554-.588-.866l-6.824 3.948a7.13 7.13 0 01-3.671 1.005 7.55 7.55 0 01-3.671-.97l-20.4-11.672c-2.252-1.317-3.672-3.741-3.672-6.339l-.035-7.308c-.346-.034-.692-.034-1.039-.069l.035 7.377a8.544 8.544 0 004.225 7.274z" fill="#FFDD0F"/><path opacity=".4" d="M82.585 22.457l12.608 7.205c.796.45 1.731.727 2.666.727h.035c.935 0 1.87-.242 2.667-.727l1.282-.762c-.278-.243-.52-.485-.797-.728l-1.005.59a4.257 4.257 0 01-2.147.588 4.387 4.387 0 01-2.182-.589l-12.607-7.204a4.322 4.322 0 01-2.182-3.74v-.867a11.528 11.528 0 00-1.04-.277v1.143c0 1.905 1.04 3.672 2.702 4.642z" fill="#FFDD0F"/><path d="M34.13 30.39c.97 0 1.905-.243 2.701-.728l12.573-7.308c1.628-.97 2.667-2.737 2.667-4.642v-.727l-1.04.312v.415a4.363 4.363 0 01-2.146 3.741l-12.573 7.308a4.259 4.259 0 01-2.148.589 4.386 4.386 0 01-2.182-.589l-.38-.208c-.278.243-.52.485-.797.728l.623.38a5.361 5.361 0 002.702.728z" fill="#FFDD0F"/><path opacity=".4" d="M34.095 42.58c1.49 0 2.944-.38 4.191-1.142l20.331-11.811c2.563-1.49 4.157-4.295 4.122-7.239l-.035-7.308-1.039.104.035 7.239a7.357 7.357 0 01-3.637 6.338l-20.331 11.81a7.132 7.132 0 01-3.671 1.005h-.035a7.42 7.42 0 01-3.637-.97l-6.13-3.602c-.208.278-.381.555-.59.866l6.27 3.602c1.247.693 2.702 1.109 4.156 1.109zM93.53 91.694l-20.297 11.811a8.39 8.39 0 00-4.156 7.239l.035 7.169c.346 0 .693-.034 1.039-.069l-.035-7.135a7.356 7.356 0 013.637-6.338L94.084 92.56c1.143-.658 2.39-1.005 3.671-1.005 1.247 0 2.529.312 3.637.97l6.997 4.018c.207-.277.415-.554.588-.866l-7.065-4.052c-2.598-1.455-5.82-1.455-8.382.069z" fill="#FFDD0F"/><path d="M95.054 103.228l-12.573 7.308a5.365 5.365 0 00-2.667 4.641v1.039c.347-.104.693-.173 1.04-.277v-.762c0-1.524.83-2.979 2.147-3.741l12.572-7.308a4.385 4.385 0 012.183-.588c.727 0 1.489.207 2.147.588l1.108.624c.277-.243.554-.485.797-.728l-1.386-.796a5.315 5.315 0 00-5.368 0z" fill="#FFDD0F"/><path opacity=".4" d="M49.231 110.432l-12.607-7.204c-1.663-.97-3.706-.935-5.369 0l-.485.277c.277.242.52.485.797.727l.242-.138a4.386 4.386 0 012.182-.589c.728 0 1.49.208 2.148.589l12.607 7.204a4.32 4.32 0 012.182 3.74v.485l1.04.312v-.797c-.07-1.87-1.074-3.636-2.737-4.606z" fill="#FFDD0F"/><path d="M58.479 103.54l-20.4-11.673c-2.598-1.489-5.785-1.489-8.348.035l-5.888 3.429c.208.277.381.589.589.866l5.819-3.395a7.32 7.32 0 013.671-1.004c1.247 0 2.528.312 3.637.97l20.4 11.672c2.251 1.316 3.671 3.741 3.671 6.304l.035 6.996 1.04.104-.035-7.066c0-2.978-1.628-5.749-4.191-7.238z" fill="#FFDD0F"/><path d="M66.686 128.372C32.674 128.372 5 100.698 5 66.686S32.674 5 66.686 5s61.686 27.674 61.686 61.686-27.674 61.686-61.686 61.686zm0-122.68c-33.631 0-60.993 27.363-60.993 60.994s27.362 60.993 60.993 60.993 60.993-27.362 60.993-60.993S100.317 5.693 66.686 5.693z" fill="#FFDD0F" opacity=".4"/><path d="M66.618 131.733c-35.917 0-65.115-29.233-65.115-65.115 0-35.882 29.232-65.115 65.115-65.115 35.882 0 65.115 29.232 65.115 65.115 0 35.882-29.198 65.115-65.115 65.115zm0-129.537c-35.502 0-64.422 28.886-64.422 64.422 0 35.501 28.886 64.422 64.422 64.422s64.422-28.886 64.422-64.422c0-35.501-28.921-64.422-64.422-64.422z" fill="#FFDD0F" opacity=".4"/><path d="M66.618 161c-25.215 0-48.906-9.802-66.743-27.639-17.837-17.838-27.64-41.528-27.64-66.743C-27.764 41.403-18.836 16.838-1-1c17.837-17.837 42.403-26.764 67.618-26.764 25.215 0 48.905 9.802 66.743 27.64C151.198 17.711 161 41.402 161 66.617c0 25.215-9.802 48.905-27.639 66.743C115.523 151.198 91.833 161 66.618 161zm0-188.071C41.576-27.071 17.198-18.7-.5-1c-17.699 17.699-26.571 42.576-26.571 67.618 0 25.041 9.732 48.559 27.43 66.258 17.7 17.699 41.217 27.431 66.259 27.431 25.041 0 48.559-9.732 66.258-27.431 17.699-17.699 27.431-41.217 27.431-66.258 0-25.042-9.732-48.56-27.431-66.258-17.699-17.699-41.217-27.43-66.258-27.43z" fill="#FFDD0F"/></g><defs><clipPath id="clip0"><path fill="#fff" d="M0 0h161v161H0z"/></clipPath></defs></svg>