<svg width="161" height="161" fill="none" xmlns="http://www.w3.org/2000/svg"><g clip-path="url(#clip0)"><path d="M94.314 128.372c34.012 0 61.686-27.674 61.686-61.686S128.326 5 94.314 5 32.628 32.674 32.628 66.686s27.674 61.686 61.686 61.686zm0-122.68c33.631 0 60.993 27.363 60.993 60.994s-27.362 60.993-60.993 60.993-60.993-27.362-60.993-60.993S60.683 5.693 94.314 5.693z" fill="#FFDD0F" opacity=".4"/><path d="M94.382 131.733c35.917 0 65.115-29.233 65.115-65.115 0-35.882-29.232-65.115-65.115-65.115-35.882 0-65.115 29.232-65.115 65.115 0 35.882 29.198 65.115 65.115 65.115zm0-129.537c35.502 0 64.422 28.886 64.422 64.422 0 35.501-28.886 64.422-64.422 64.422S29.96 102.154 29.96 66.618c0-35.501 28.92-64.422 64.422-64.422z" fill="#FFDD0F" opacity=".4"/><path d="M94.382 161c25.215 0 48.906-9.802 66.743-27.639 17.837-17.838 27.639-41.528 27.639-66.743 0-25.215-8.927-49.78-26.764-67.618-17.837-17.837-42.403-26.764-67.618-26.764-25.215 0-48.905 9.802-66.743 27.64C9.802 17.711 0 41.402 0 66.617c0 25.215 9.802 48.905 27.64 66.743C45.476 151.198 69.166 161 94.381 161zm0-188.071c25.042 0 49.419 8.372 67.118 26.071 17.699 17.699 26.571 42.576 26.571 67.618 0 25.041-9.732 48.559-27.431 66.258-17.699 17.699-41.216 27.431-66.258 27.431-25.041 0-48.559-9.732-66.258-27.431C10.425 115.177.693 91.659.693 66.618c0-25.042 9.732-48.56 27.431-66.258 17.699-17.699 41.217-27.43 66.258-27.43z" fill="#FFDD0F"/><g clip-path="url(#clip1)" opacity=".6"><path d="M70.303 47.893l20.376-11.668a7.814 7.814 0 017.831.025l20.302 11.808a7.854 7.854 0 013.896 6.785l-.079 23.49a7.87 7.87 0 01-3.946 6.773l-20.37 11.665a7.818 7.818 0 01-7.838-.023L70.168 84.937a7.88 7.88 0 01-3.876-6.796l.08-23.49a7.874 7.874 0 013.93-6.758z" fill="#FFF19F"/><path d="M79.545 55l12.593-7.212a4.83 4.83 0 014.84.016l12.547 7.298a4.86 4.86 0 012.409 4.194l-.049 14.518a4.865 4.865 0 01-2.438 4.188l-12.59 7.21a4.833 4.833 0 01-4.844-.014l-12.55-7.3a4.87 4.87 0 01-2.397-4.202l.049-14.518A4.866 4.866 0 0179.545 55z" fill="#FFDD0F"/><path d="M85.257 59.392l7.783-4.457a2.984 2.984 0 012.992.01l7.753 4.51a3 3 0 011.488 2.593l-.03 8.972a3.005 3.005 0 01-1.507 2.588l-7.781 4.456a2.986 2.986 0 01-2.994-.009l-7.757-4.512a3.012 3.012 0 01-1.481-2.596l.03-8.972a3.007 3.007 0 011.504-2.583z" fill="#FFDD0F"/><path d="M7.522 47.68l20.376-11.668a7.813 7.813 0 017.832.025l20.3 11.809a7.857 7.857 0 013.897 6.786l-.08 23.489a7.87 7.87 0 01-3.946 6.774L35.532 96.56a7.818 7.818 0 01-7.838-.023L7.387 84.726a7.881 7.881 0 01-3.876-6.796l.08-23.49a7.875 7.875 0 013.931-6.76z" fill="#FFF19F"/><path d="M16.766 54.787l12.593-7.211a4.828 4.828 0 014.84.015l12.547 7.298a4.856 4.856 0 012.408 4.194l-.049 14.518a4.862 4.862 0 01-2.438 4.188l-12.59 7.21a4.831 4.831 0 01-4.843-.014l-12.551-7.3a4.871 4.871 0 01-2.396-4.2l.049-14.519a4.868 4.868 0 012.43-4.18z" fill="#FFEB6F"/><path d="M134.064 48.11l20.376-11.67a7.817 7.817 0 017.832.026l20.301 11.808a7.856 7.856 0 013.896 6.784l-.079 23.49a7.87 7.87 0 01-3.946 6.773l-20.37 11.665a7.821 7.821 0 01-7.838-.022l-20.307-11.812a7.888 7.888 0 01-3.876-6.796l.079-23.49a7.87 7.87 0 013.932-6.758z" fill="#FFF19F"/><path d="M143.306 55.216l12.594-7.21a4.826 4.826 0 014.84.014l12.547 7.298a4.85 4.85 0 012.408 4.195l-.049 14.517a4.864 4.864 0 01-2.438 4.188l-12.59 7.21a4.832 4.832 0 01-4.844-.014l-12.55-7.3a4.872 4.872 0 01-2.397-4.2l.049-14.518a4.863 4.863 0 012.43-4.18z" fill="#FFEB6F"/><path d="M39.059-8.022L59.435-19.69a7.812 7.812 0 017.831.025L87.567-7.857a7.857 7.857 0 013.897 6.784l-.08 23.49a7.868 7.868 0 01-3.946 6.774l-20.37 11.664a7.818 7.818 0 01-7.838-.022L38.924 29.022a7.88 7.88 0 01-3.877-6.796l.08-23.49a7.875 7.875 0 013.932-6.758z" fill="#FFF19F"/><path d="M48.3-.914l12.595-7.211a4.829 4.829 0 014.84.015L78.281-.812a4.856 4.856 0 012.408 4.194L80.64 17.9a4.863 4.863 0 01-2.437 4.188l-12.59 7.21a4.832 4.832 0 01-4.844-.014l-12.55-7.3a4.871 4.871 0 01-2.397-4.2l.05-14.518A4.865 4.865 0 0148.3-.914z" fill="#FFEB6F"/><path d="M111.988-.914l12.594-7.211a4.829 4.829 0 014.84.015l12.547 7.298a4.86 4.86 0 012.408 4.194l-.049 14.518a4.853 4.853 0 01-2.438 4.188l-12.59 7.21a4.832 4.832 0 01-4.844-.014l-12.55-7.3a4.873 4.873 0 01-2.397-4.2l.05-14.518a4.864 4.864 0 012.429-4.18zM54.013 3.478l7.784-4.457a2.984 2.984 0 012.99.01l7.754 4.51a3.001 3.001 0 011.489 2.593L74 15.106a3.005 3.005 0 01-1.508 2.588l-7.78 4.455a2.988 2.988 0 01-2.995-.008L53.96 17.63a3.01 3.01 0 01-1.48-2.596l.03-8.972a3.009 3.009 0 011.503-2.583z" fill="#FFDD0F"/><path d="M102.94-7.805l20.376-11.668a7.812 7.812 0 017.831.025l20.301 11.809a7.849 7.849 0 013.897 6.784l-.079 23.49a7.87 7.87 0 01-3.946 6.773l-20.371 11.665a7.814 7.814 0 01-7.837-.022l-20.307-11.812a7.88 7.88 0 01-3.876-6.796l.08-23.49a7.87 7.87 0 013.931-6.758zM39.059 103.807L59.435 92.14a7.813 7.813 0 017.831.025l20.301 11.808a7.86 7.86 0 013.897 6.786l-.08 23.489a7.87 7.87 0 01-3.946 6.774l-20.37 11.665a7.821 7.821 0 01-7.838-.022l-20.306-11.812a7.879 7.879 0 01-3.877-6.796l.08-23.489a7.875 7.875 0 013.932-6.761z" fill="#FFF19F"/><path d="M48.3 110.769l12.595-7.21a4.831 4.831 0 014.84.016l12.547 7.298a4.858 4.858 0 012.408 4.194l-.05 14.518a4.862 4.862 0 01-2.437 4.186l-12.59 7.209a4.831 4.831 0 01-4.844-.013l-12.55-7.3a4.878 4.878 0 01-2.397-4.201l.05-14.517a4.864 4.864 0 012.429-4.18z" fill="#FFEB6F"/><path d="M112.063 110.914l12.593-7.209a4.832 4.832 0 014.84.015l12.548 7.298a4.864 4.864 0 012.408 4.195l-.05 14.517a4.863 4.863 0 01-2.438 4.187l-12.589 7.209a4.843 4.843 0 01-2.424.644 4.821 4.821 0 01-2.42-.658l-12.551-7.3a4.871 4.871 0 01-2.396-4.2l.048-14.52a4.871 4.871 0 012.431-4.178zm-58.05 4.393l7.784-4.457a2.984 2.984 0 012.991.01l7.753 4.51a3.005 3.005 0 011.489 2.593l-.03 8.972a3.005 3.005 0 01-1.508 2.588l-7.78 4.455a2.984 2.984 0 01-2.995-.008l-7.757-4.512a3.01 3.01 0 01-1.48-2.596l.03-8.972a3.003 3.003 0 011.503-2.583z" fill="#FFDD0F"/><path d="M102.82 104.023l20.377-11.667a7.808 7.808 0 017.831.025l20.301 11.809a7.853 7.853 0 013.897 6.785l-.08 23.49a7.868 7.868 0 01-3.946 6.774l-20.37 11.664a7.813 7.813 0 01-7.838-.022l-20.306-11.811a7.885 7.885 0 01-3.877-6.796l.08-23.49a7.875 7.875 0 013.931-6.761z" fill="#FFF19F"/><path d="M143.453 12.054l12.595-7.21a4.829 4.829 0 014.84.015l12.547 7.298a4.859 4.859 0 012.409 4.194l-.05 14.518a4.853 4.853 0 01-2.438 4.188l-12.59 7.21a4.829 4.829 0 01-4.843-.014l-12.551-7.3a4.864 4.864 0 01-2.396-4.2l.049-14.518a4.86 4.86 0 012.428-4.18z" fill="#FFDD0F"/><path d="M112.226-.914l12.594-7.211a4.829 4.829 0 014.84.015l12.547 7.298a4.849 4.849 0 012.408 4.194l-.049 14.518a4.864 4.864 0 01-2.438 4.188l-12.59 7.21a4.832 4.832 0 01-4.844-.014l-12.55-7.3a4.875 4.875 0 01-2.397-4.2l.049-14.518a4.872 4.872 0 012.43-4.18zm0 111.539l12.594-7.211a4.832 4.832 0 014.84.015l12.547 7.298a4.851 4.851 0 012.408 4.194l-.049 14.518a4.867 4.867 0 01-2.438 4.188l-12.59 7.209a4.828 4.828 0 01-4.844-.013l-12.55-7.3a4.874 4.874 0 01-2.397-4.201l.049-14.517a4.871 4.871 0 012.43-4.18z" fill="#FFEB6F"/></g></g><defs><clipPath id="clip0"><path fill="#fff" transform="matrix(-1 0 0 1 161 0)" d="M0 0h161v161H0z"/></clipPath><clipPath id="clip1"><rect width="103" height="103" rx="51.5" transform="matrix(-1 0 0 1 146 15)" fill="#fff"/></clipPath></defs></svg>