<svg width="161" height="161" fill="none" xmlns="http://www.w3.org/2000/svg"><g clip-path="url(#clip0)"><path d="M94.5 118c28.396 0 51.5-23.104 51.5-51.5S122.896 15 94.5 15 43 38.104 43 66.5 66.104 118 94.5 118z" fill="#FFFBE5" fill-opacity=".4"/><path d="M94.417 86.326c.935 0 1.87-.243 2.667-.728l12.607-7.204c1.663-.97 2.702-2.736 2.702-4.641l.034-14.512a5.364 5.364 0 00-2.667-4.642l-12.572-7.308c-1.628-.97-3.706-.97-5.369 0l-12.607 7.205a5.473 5.473 0 00-2.702 4.64l-.035 14.513a5.365 5.365 0 002.667 4.641l12.573 7.308c.797.485 1.732.728 2.702.728-.035 0 0 0 0 0zm.104-38.723c.762 0 1.489.208 2.182.589l12.572 7.308a4.361 4.361 0 012.148 3.74l-.035 14.513a4.321 4.321 0 01-2.182 3.74l-12.607 7.205a4.29 4.29 0 01-2.182.589 4.165 4.165 0 01-2.148-.59L79.697 77.39a4.363 4.363 0 01-2.148-3.741l.035-14.512c0-1.524.831-2.944 2.182-3.741l12.607-7.204c.658-.416 1.386-.589 2.148-.589z" fill="#FFDD0F"/><path opacity=".4" d="M60.37 54.565l-.07 23.517c0 2.979-1.627 5.75-4.225 7.24l-7.654 4.363a11.491 11.491 0 01-.45-.935l7.585-4.33c2.25-1.316 3.67-3.74 3.67-6.338l.07-23.517a7.357 7.357 0 00-3.637-6.338l-7.55-4.4c.138-.311.312-.623.45-.934l7.62 4.433c2.632 1.49 4.225 4.295 4.19 7.239z" fill="#FFDD0F"/><path opacity=".7" d="M49.598 59.033l-.035 14.512c0 1.905-1.039 3.671-2.701 4.641l-2.251 1.282c-.104-.347-.174-.693-.277-1.04l2.008-1.142a4.322 4.322 0 002.182-3.74l.035-14.513a4.363 4.363 0 00-2.147-3.74l-2.01-1.178c.07-.347.174-.693.278-1.04l2.251 1.317c1.663.935 2.667 2.736 2.667 4.64z" fill="#FFDD0F"/><path opacity=".4" d="M129.503 78.325l.069-23.518c0-2.944 1.628-5.715 4.191-7.204l6.892-3.949c.139.312.312.624.45.936l-6.823 3.913c-2.251 1.317-3.671 3.741-3.671 6.304l-.069 23.518a7.357 7.357 0 003.636 6.338l6.789 3.949c-.139.311-.312.623-.45.935l-6.858-3.983c-2.563-1.524-4.156-4.295-4.156-7.24z" fill="#FFDD0F"/><path opacity=".7" d="M140.309 73.857l.034-14.513c0-1.905 1.04-3.671 2.702-4.64l1.42-.797c.104.346.173.692.243 1.039l-1.143.658a4.322 4.322 0 00-2.183 3.74l-.034 14.513c0 1.524.831 2.978 2.147 3.74l1.143.658c-.069.347-.173.693-.277 1.04l-1.42-.832c-1.628-.9-2.667-2.701-2.632-4.606z" fill="#FFDD0F"/><path d="M87.663 29.558L67.297 41.23a8.295 8.295 0 01-4.156 1.108h-.035a8.203 8.203 0 01-4.19-1.143l-6.893-4.017c.207-.277.38-.554.588-.866l6.824 3.948a7.132 7.132 0 003.671 1.005 7.55 7.55 0 003.671-.97l20.4-11.672c2.252-1.317 3.672-3.741 3.672-6.339l.035-7.308c.346-.034.692-.034 1.039-.069l-.035 7.377a8.544 8.544 0 01-4.225 7.274z" fill="#FFDD0F"/><path opacity=".4" d="M78.415 22.457l-12.608 7.205c-.796.45-1.731.727-2.666.727h-.035c-.935 0-1.87-.242-2.667-.727l-1.282-.762c.278-.243.52-.485.797-.728l1.005.59a4.26 4.26 0 002.147.588c.762 0 1.524-.208 2.182-.589l12.607-7.204a4.322 4.322 0 002.182-3.74v-.867c.347-.104.693-.207 1.04-.277v1.143c0 1.905-1.04 3.672-2.702 4.642z" fill="#FFDD0F"/><path d="M126.87 30.39c-.97 0-1.905-.243-2.701-.728l-12.573-7.308c-1.628-.97-2.667-2.737-2.667-4.642v-.727l1.039.312v.415a4.36 4.36 0 002.148 3.741l12.572 7.308a4.26 4.26 0 002.148.589c.762 0 1.524-.208 2.182-.589l.381-.208c.277.243.519.485.796.728l-.623.38a5.362 5.362 0 01-2.702.728z" fill="#FFDD0F"/><path opacity=".4" d="M126.905 42.58c-1.49 0-2.944-.38-4.191-1.142l-20.331-11.811c-2.563-1.49-4.156-4.295-4.122-7.239l.035-7.308 1.039.104-.035 7.239a7.358 7.358 0 003.637 6.338l20.331 11.81a7.13 7.13 0 003.671 1.005h.035a7.422 7.422 0 003.637-.97l6.13-3.602c.208.278.381.555.589.866l-6.269 3.602c-1.247.693-2.702 1.109-4.156 1.109zM67.47 91.694l20.297 11.811a8.39 8.39 0 014.156 7.239l-.035 7.169c-.346 0-.693-.034-1.039-.069l.035-7.135a7.356 7.356 0 00-3.637-6.338L66.916 92.56c-1.143-.658-2.39-1.005-3.671-1.005-1.247 0-2.529.312-3.637.97l-6.996 4.018a7.586 7.586 0 01-.59-.866l7.066-4.052c2.598-1.455 5.82-1.455 8.382.069z" fill="#FFDD0F"/><path d="M65.946 103.228l12.573 7.308a5.365 5.365 0 012.667 4.641v1.039c-.347-.104-.693-.173-1.04-.277v-.762A4.363 4.363 0 0078 111.436l-12.572-7.308a4.385 4.385 0 00-2.183-.588c-.727 0-1.489.207-2.147.588l-1.108.624c-.277-.243-.554-.485-.797-.728l1.386-.796a5.316 5.316 0 015.368 0z" fill="#FFDD0F"/><path opacity=".4" d="M111.769 110.432l12.607-7.204c1.663-.97 3.706-.935 5.369 0l.485.277c-.277.242-.52.485-.797.727l-.242-.138a4.385 4.385 0 00-2.182-.589c-.728 0-1.49.208-2.148.589l-12.607 7.204a4.32 4.32 0 00-2.182 3.74v.485l-1.039.312v-.797c.069-1.87 1.073-3.636 2.736-4.606z" fill="#FFDD0F"/><path d="M102.521 103.54l20.401-11.673c2.597-1.489 5.784-1.489 8.347.035l5.888 3.429c-.208.277-.381.589-.589.866l-5.819-3.395c-1.143-.658-2.389-1.004-3.671-1.004-1.247 0-2.528.312-3.637.97l-20.4 11.672c-2.251 1.316-3.671 3.741-3.671 6.304l-.035 6.996-1.04.104.035-7.066c0-2.978 1.628-5.749 4.191-7.238z" fill="#FFDD0F"/><path d="M94.314 128.372c34.012 0 61.686-27.674 61.686-61.686S128.326 5 94.314 5 32.628 32.674 32.628 66.686s27.674 61.686 61.686 61.686zm0-122.68c33.631 0 60.993 27.363 60.993 60.994s-27.362 60.993-60.993 60.993-60.993-27.362-60.993-60.993S60.683 5.693 94.314 5.693z" fill="#FFDD0F" opacity=".4"/><path d="M94.382 131.733c35.917 0 65.115-29.233 65.115-65.115 0-35.882-29.232-65.115-65.115-65.115-35.882 0-65.115 29.232-65.115 65.115 0 35.882 29.198 65.115 65.115 65.115zm0-129.537c35.502 0 64.422 28.886 64.422 64.422 0 35.501-28.886 64.422-64.422 64.422S29.96 102.154 29.96 66.618c0-35.501 28.92-64.422 64.422-64.422z" fill="#FFDD0F" opacity=".4"/><path d="M94.382 161c25.215 0 48.906-9.802 66.743-27.639 17.837-17.838 27.639-41.528 27.639-66.743 0-25.215-8.927-49.78-26.764-67.618-17.837-17.837-42.403-26.764-67.618-26.764-25.215 0-48.905 9.802-66.743 27.64C9.802 17.711 0 41.402 0 66.617c0 25.215 9.802 48.905 27.64 66.743C45.476 151.198 69.166 161 94.381 161zm0-188.071c25.042 0 49.419 8.372 67.118 26.071 17.699 17.699 26.571 42.576 26.571 67.618 0 25.041-9.732 48.559-27.431 66.258-17.699 17.699-41.216 27.431-66.258 27.431-25.041 0-48.559-9.732-66.258-27.431C10.425 115.177.693 91.659.693 66.618c0-25.042 9.732-48.56 27.431-66.258 17.699-17.699 41.217-27.43 66.258-27.43z" fill="#FFDD0F"/><path fill-rule="evenodd" clip-rule="evenodd" d="M122.672 70.435l3.182-3.182a.5.5 0 000-.707l-3.182-3.182a.5.5 0 10-.707.707l2.328 2.328h-12.176v1h12.176l-2.328 2.329a.499.499 0 10.707.707zm-56.226-7.071l-3.182 3.182a.5.5 0 000 .707l3.182 3.182a.5.5 0 10.707-.707L64.824 67.4H77v-1H64.825l2.328-2.329a.5.5 0 00-.707-.707zm17.59-22.036l-4.347-1.165a.5.5 0 00-.612.354l-1.165 4.346a.5.5 0 10.966.259l.852-3.18 5.844 10.126.866-.5-5.844-10.127 3.18.853a.5.5 0 10.26-.966zm27.662 3.163l-1.164-4.346a.5.5 0 00-.613-.354l-4.346 1.165a.5.5 0 00.258.965l3.181-.852-6.088 10.545.866.5 6.088-10.545.852 3.181a.5.5 0 00.966-.259zM77.71 89.286l1.164 4.347a.5.5 0 00.613.353l4.346-1.164a.5.5 0 10-.258-.966l-3.181.852 6.088-10.544-.867-.5-6.087 10.544-.853-3.18a.5.5 0 10-.965.258zm27.68 3.171l4.347 1.164a.5.5 0 00.612-.353l1.165-4.347a.5.5 0 00-.966-.259l-.852 3.181-6.088-10.544-.866.5 6.088 10.544-3.181-.852a.5.5 0 10-.259.966z" fill="#FFDD0F"/></g><defs><clipPath id="clip0"><path fill="#fff" transform="matrix(-1 0 0 1 161 0)" d="M0 0h161v161H0z"/></clipPath></defs></svg>