<svg width="60" height="60" fill="none" xmlns="http://www.w3.org/2000/svg"><circle cx="30" cy="30" r="30" fill="#C6F8E3" fill-opacity=".6"/><ellipse cx="36.348" cy="18.435" rx="9.626" ry="4.211" fill="#90F2C8"/><path fill-rule="evenodd" clip-rule="evenodd" d="M45.575 21.443c-1.183 1.74-4.866 3.008-9.227 3.008-4.36 0-8.043-1.268-9.227-3.008-.26.381-.398.785-.398 1.203 0 2.326 4.31 4.212 9.625 4.212 5.316 0 9.626-1.886 9.626-4.212 0-.418-.14-.822-.398-1.203z" fill="#A4F4D2" fill-opacity=".8"/><path fill-rule="evenodd" clip-rule="evenodd" d="M45.575 25.4c-1.183 1.74-4.866 3.009-9.227 3.009-4.36 0-8.043-1.269-9.227-3.008-.26.381-.398.785-.398 1.203 0 2.326 4.31 4.211 9.625 4.211 5.316 0 9.626-1.885 9.626-4.21 0-.419-.14-.823-.398-1.204z" fill="#A4F4D2" fill-opacity=".8"/><ellipse cx="19.253" cy="27.807" rx="9.626" ry="4.211" fill="#90F2C8"/><path fill-rule="evenodd" clip-rule="evenodd" d="M28.48 30.815c-1.183 1.74-4.867 3.009-9.227 3.009s-8.044-1.269-9.228-3.009c-.259.382-.398.785-.398 1.204 0 2.325 4.31 4.21 9.626 4.21s9.625-1.885 9.625-4.21c0-.418-.139-.822-.398-1.204z" fill="#A4F4D2" fill-opacity=".8"/><path fill-rule="evenodd" clip-rule="evenodd" d="M28.48 34.773c-1.183 1.74-4.867 3.008-9.227 3.008s-8.044-1.268-9.228-3.008c-.259.381-.398.785-.398 1.203 0 2.326 4.31 4.212 9.626 4.212s9.625-1.886 9.625-4.212c0-.418-.139-.822-.398-1.203z" fill="#A4F4D2" fill-opacity=".8"/><ellipse cx="37.407" cy="33.396" rx="9.626" ry="4.211" fill="#90F2C8"/><path fill-rule="evenodd" clip-rule="evenodd" d="M46.634 36.404c-1.183 1.74-4.867 3.008-9.227 3.008s-8.044-1.268-9.227-3.008c-.26.381-.399.785-.399 1.203 0 2.326 4.31 4.211 9.626 4.211s9.626-1.885 9.626-4.21c0-.419-.14-.823-.399-1.204z" fill="#A4F4D2" fill-opacity=".8"/><path fill-rule="evenodd" clip-rule="evenodd" d="M46.634 40.362c-1.183 1.74-4.867 3.008-9.227 3.008s-8.044-1.269-9.227-3.008c-.26.38-.399.785-.399 1.203 0 2.326 4.31 4.211 9.626 4.211s9.626-1.885 9.626-4.211c0-.418-.14-.822-.399-1.203z" fill="#A4F4D2" fill-opacity=".8"/></svg>