<svg width="60" height="60" fill="none" xmlns="http://www.w3.org/2000/svg"><circle cx="30" cy="30" r="30" fill="#C6F8E3" fill-opacity=".6"/><ellipse cx="29.695" cy="25.278" rx="11.968" ry="5.244" fill="#90F2C8"/><path fill-rule="evenodd" clip-rule="evenodd" d="M41.168 29.024c-1.471 2.166-6.051 3.745-11.473 3.745-5.421 0-10-1.58-11.472-3.745-.323.474-.496.977-.496 1.498 0 2.896 5.359 5.244 11.968 5.244 6.61 0 11.968-2.348 11.968-5.244 0-.52-.173-1.024-.495-1.498z" fill="#A4F4D2" fill-opacity=".8"/><path fill-rule="evenodd" clip-rule="evenodd" d="M41.168 33.952c-1.471 2.166-6.051 3.746-11.473 3.746-5.421 0-10-1.58-11.472-3.746-.323.475-.496.977-.496 1.498 0 2.896 5.359 5.244 11.968 5.244 6.61 0 11.968-2.348 11.968-5.244 0-.52-.173-1.023-.495-1.498z" fill="#A4F4D2" fill-opacity=".8"/></svg>