<svg width="40" height="40" fill="none" xmlns="http://www.w3.org/2000/svg"><path fill-rule="evenodd" clip-rule="evenodd" d="M19.875 0C8.898 0 0 8.898 0 19.875S8.898 39.75 19.875 39.75 39.75 30.852 39.75 19.875 30.852 0 19.875 0z" fill="#EFEFEF"/><path d="M21.975 12.952A3.628 3.628 0 0019.501 12c-1.933 0-3.5 1.454-3.501 3.25 0 1.794 1.566 3.25 3.499 3.25s3.5-1.454 3.501-3.25c0-.861-.368-1.688-1.025-2.298z" fill="#D7D7D7"/><path fill-rule="evenodd" clip-rule="evenodd" d="M19.924 19.5h-.345A6.593 6.593 0 0013 26.074v.464c0 .255.207.462.462.462h12.576a.462.462 0 00.462-.462v-.464a6.595 6.595 0 00-6.576-6.574z" fill="#D7D7D7"/></svg>