<svg width="60" height="60" fill="none" xmlns="http://www.w3.org/2000/svg"><circle cx="30" cy="30" r="30" fill="#C6F8E3" fill-opacity=".6"/><path d="M33.557 18.65c-1.136-1.058-2.68-1.652-4.289-1.65-3.35 0-6.067 2.52-6.068 5.632 0 3.111 2.714 5.634 6.065 5.635 3.35 0 6.067-2.52 6.068-5.632 0-1.494-.638-2.928-1.776-3.984z" fill="#90F2C8"/><path fill-rule="evenodd" clip-rule="evenodd" d="M30.001 30h-.598c-6.291.015-11.387 5.108-11.403 11.395v.805a.8.8 0 00.8.8h21.8a.8.8 0 00.8-.8v-.805C41.382 35.111 36.29 30.021 30.001 30z" fill="#90F2C8"/></svg>